<?xml version="1.0" encoding="UTF-8" standalone="no"?>
<!-- Created with Inkscape (http://www.inkscape.org/) -->

<svg
   xmlns:dc="http://purl.org/dc/elements/1.1/"
   xmlns:cc="http://creativecommons.org/ns#"
   xmlns:rdf="http://www.w3.org/1999/02/22-rdf-syntax-ns#"
   xmlns:svg="http://www.w3.org/2000/svg"
   xmlns="http://www.w3.org/2000/svg"
   xmlns:sodipodi="http://sodipodi.sourceforge.net/DTD/sodipodi-0.dtd"
   xmlns:inkscape="http://www.inkscape.org/namespaces/inkscape"
   width="290"
   height="71"
   viewBox="0 0 290 71.000003"
   id="svg2"
   version="1.1"
   inkscape:version="0.91 r13725"
   sodipodi:docname="logo.svg"
   inkscape:export-filename="/Users/shiogen/Desktop/SugarSync MyMac/20 プロジェクト/20141214IoT/ティザーサイト作成/logo.png"
   inkscape:export-xdpi="90"
   inkscape:export-ydpi="90">
  <defs
     id="defs4" />
  <sodipodi:namedview
     id="base"
     pagecolor="#ffffff"
     bordercolor="#666666"
     borderopacity="1.0"
     inkscape:pageopacity="0.0"
     inkscape:pageshadow="2"
     inkscape:zoom="0.82196034"
     inkscape:cx="-42.939162"
     inkscape:cy="14.907955"
     inkscape:document-units="px"
     inkscape:current-layer="layer2"
     showgrid="false"
     inkscape:window-width="1920"
     inkscape:window-height="1031"
     inkscape:window-x="0"
     inkscape:window-y="0"
     inkscape:window-maximized="1"
     fit-margin-top="0"
     fit-margin-left="0"
     fit-margin-right="0"
     fit-margin-bottom="0"
     units="px"
     showborder="false" />
  <metadata
     id="metadata7">
    <rdf:RDF>
      <cc:Work
         rdf:about="">
        <dc:format>image/svg+xml</dc:format>
        <dc:type
           rdf:resource="http://purl.org/dc/dcmitype/StillImage" />
        <dc:title />
      </cc:Work>
    </rdf:RDF>
  </metadata>
  <g
     inkscape:groupmode="layer"
     id="layer2"
     inkscape:label="Layer 3">
    <rect
       style="fill:none;fill-opacity:1;stroke:none;stroke-width:40;stroke-linecap:round;stroke-linejoin:round;stroke-miterlimit:4;stroke-dasharray:none;stroke-opacity:1"
       id="rect4148"
       width="279.81885"
       height="63.263393"
       x="6.0830188"
       y="2.8701923" />
  </g>
  <g
     inkscape:label="Layer 1"
     inkscape:groupmode="layer"
     id="layer1"
     transform="translate(-229.45433,-421.42491)"
     style="display:inline">
    <g
       transform="translate(5.7142857,25.714286)"
       style="font-style:normal;font-variant:normal;font-weight:900;font-stretch:normal;font-size:40px;line-height:125%;font-family:'Arial Black';-inkscape-font-specification:'Arial Black, Heavy';text-align:center;letter-spacing:0px;word-spacing:0px;text-anchor:middle;fill:#ffffff;fill-opacity:1;stroke:none;stroke-width:1px;stroke-linecap:butt;stroke-linejoin:miter;stroke-opacity:1"
       id="flowRoot3336">
      <path
         d="m 246.40918,414.18175 7.96875,0 0,5.46875 -7.96875,0 0,-5.46875 z m 0,7.89062 7.96875,0 0,20.11719 q 0,3.84766 -0.56641,5.44922 -0.54687,1.60156 -2.05078,2.59766 -1.5039,0.99609 -4.29687,0.99609 -2.30469,0 -5.72266,-0.68359 l 1.19141,-5.78125 q 0.95703,0.19531 1.40625,0.19531 1.01562,0 1.54297,-0.70313 0.52734,-0.68359 0.52734,-2.7539 l 0,-19.4336 z"
         id="path3343"
         inkscape:connector-curvature="0"
         style="fill:#ffffff" />
      <path
         d="m 281.31152,442.81456 -7.42187,0 0,-3.35937 q -1.66016,2.07031 -3.35938,2.94922 -1.67968,0.8789 -4.14062,0.8789 -3.28125,0 -5.15625,-1.95312 -1.85547,-1.97266 -1.85547,-6.05469 l 0,-13.20313 7.98828,0 0,11.40625 q 0,1.95313 0.72266,2.77344 0.72265,0.82031 2.03125,0.82031 1.42578,0 2.32422,-1.09375 0.91796,-1.09375 0.91796,-3.92578 l 0,-9.98047 7.94922,0 0,20.74219 z"
         id="path3345"
         inkscape:connector-curvature="0"
         style="fill:#ffffff" />
      <path
         d="m 286.2334,422.07237 7.42187,0 0,3.02735 q 1.60157,-1.89453 3.22266,-2.69531 1.64062,-0.80079 3.94531,-0.80079 2.48047,0 3.92578,0.87891 1.44532,0.87891 2.36328,2.61719 1.875,-2.03125 3.41797,-2.75391 1.54297,-0.74219 3.8086,-0.74219 3.33984,0 5.21484,1.99219 1.875,1.97266 1.875,6.19141 l 0,13.02734 -7.96875,0 0,-11.8164 q 0,-1.40625 -0.54687,-2.08985 -0.80079,-1.07422 -1.99219,-1.07422 -1.40625,0 -2.26563,1.01563 -0.85937,1.01562 -0.85937,3.26172 l 0,10.70312 -7.96875,0 0,-11.42578 q 0,-1.36719 -0.15625,-1.85547 -0.25391,-0.78125 -0.87891,-1.25 -0.625,-0.48828 -1.46484,-0.48828 -1.36719,0 -2.2461,1.03516 -0.8789,1.03515 -0.8789,3.39843 l 0,10.58594 -7.96875,0 0,-20.74219 z"
         id="path3347"
         inkscape:connector-curvature="0"
         style="fill:#ffffff" />
      <path
         d="m 326.21387,450.70519 0,-28.63282 7.4414,0 0,3.06641 q 1.54297,-1.93359 2.83203,-2.61719 1.73829,-0.91797 3.84766,-0.91797 4.16016,0 6.42578,3.1836 2.28516,3.18359 2.28516,7.87109 0,5.17578 -2.48047,7.91016 -2.48047,2.71484 -6.26953,2.71484 -1.83594,0 -3.35938,-0.625 -1.5039,-0.625 -2.69531,-1.85547 l 0,9.90235 -8.02734,0 z m 7.96875,-18.20313 q 0,2.46094 1.03515,3.65235 1.03516,1.1914 2.61719,1.1914 1.38672,0 2.32422,-1.13281 0.9375,-1.15234 0.9375,-3.88672 0,-2.51953 -0.97656,-3.69141 -0.97657,-1.1914 -2.38282,-1.1914 -1.52343,0 -2.53906,1.1914 -1.01562,1.19141 -1.01562,3.86719 z"
         id="path3349"
         inkscape:connector-curvature="0"
         style="fill:#ffffff" />
      <path
         d="m 350.47168,422.07237 7.69531,0 3.33985,13.06641 4.21875,-13.06641 7.16796,0 4.375,13.06641 3.33985,-13.06641 7.63672,0 -7.63672,20.74219 -7.07031,0 -4.19922,-12.48047 -4.0625,12.48047 -7.10938,0 -7.69531,-20.74219 z"
         id="path3351"
         inkscape:connector-curvature="0"
         style="fill:#ffffff" />
      <path
         d="m 390.84277,414.18175 7.94922,0 0,5.41016 -7.94922,0 0,-5.41016 z m 0,7.89062 7.94922,0 0,20.74219 -7.94922,0 0,-20.74219 z"
         id="path3353"
         inkscape:connector-curvature="0"
         style="fill:#ffffff" />
      <path
         d="m 403.90918,422.07237 7.44141,0 0,3.39844 q 1.07421,-2.20703 2.20703,-3.02734 1.15234,-0.83985 2.83203,-0.83985 1.75781,0 3.84765,1.09375 l -2.46093,5.66407 q -1.40625,-0.58594 -2.22657,-0.58594 -1.5625,0 -2.42187,1.28906 -1.23047,1.81641 -1.23047,6.79688 l 0,6.95312 -7.98828,0 0,-20.74219 z"
         id="path3355"
         inkscape:connector-curvature="0"
         style="fill:#ffffff" />
      <path
         d="m 444.59277,434.41612 -15.9375,0 q 0.21485,1.91407 1.03516,2.85157 1.15234,1.34765 3.00781,1.34765 1.17188,0 2.22656,-0.58593 0.64454,-0.3711 1.38672,-1.3086 l 7.83203,0.72266 q -1.79687,3.125 -4.33593,4.49219 -2.53907,1.34765 -7.28516,1.34765 -4.12109,0 -6.48437,-1.15234 -2.36329,-1.17188 -3.92579,-3.69141 -1.54296,-2.53906 -1.54296,-5.95703 0,-4.86328 3.10546,-7.87109 3.125,-3.00782 8.61329,-3.00782 4.45312,0 7.03125,1.34766 2.57812,1.34766 3.92578,3.90625 1.34765,2.55859 1.34765,6.66016 l 0,0.89843 z m -8.08593,-3.80859 q -0.23438,-2.30469 -1.25,-3.30078 -0.9961,-0.99609 -2.63672,-0.99609 -1.89453,0 -3.02735,1.5039 -0.72265,0.9375 -0.91797,2.79297 l 7.83204,0 z"
         id="path3357"
         inkscape:connector-curvature="0"
         style="fill:#ffffff" />
      <path
         d="m 448.30371,434.84581 8.49609,0 0,7.96875 -8.49609,0 0,-7.96875 z"
         style="fill:#ffffff;fill-opacity:1"
         id="path3359"
         inkscape:connector-curvature="0" />
      <path
         d="m 461.93652,414.18175 7.94922,0 0,5.41016 -7.94922,0 0,-5.41016 z m 0,7.89062 7.94922,0 0,20.74219 -7.94922,0 0,-20.74219 z"
         style="fill:#ffffff;fill-opacity:1"
         id="path3361"
         inkscape:connector-curvature="0" />
      <path
         d="m 473.94824,432.50206 q 0,-4.74609 3.20313,-7.8125 3.20312,-3.08594 8.65234,-3.08594 6.23047,0 9.41406,3.61329 2.5586,2.91015 2.5586,7.16796 0,4.78516 -3.1836,7.85157 -3.16406,3.04687 -8.76953,3.04687 -5,0 -8.08594,-2.53906 -3.78906,-3.14453 -3.78906,-8.24219 z m 7.96875,-0.0195 q 0,2.77344 1.11328,4.10156 1.13282,1.32813 2.83203,1.32813 1.71875,0 2.8125,-1.3086 1.11329,-1.30859 1.11329,-4.19921 0,-2.69532 -1.11329,-4.00391 -1.11328,-1.32813 -2.7539,-1.32813 -1.73828,0 -2.8711,1.34766 -1.13281,1.32813 -1.13281,4.0625 z"
         style="fill:#ffffff;fill-opacity:1"
         id="path3363"
         inkscape:connector-curvature="0" />
    </g>
  </g>
  <g
     inkscape:groupmode="layer"
     id="layer3"
     inkscape:label="Layer 2"
     transform="translate(-229.45433,-421.42491)"
     style="display:none">
    <path
       style="fill:none;fill-opacity:1;stroke:#999999;stroke-width:8.97796726;stroke-linejoin:round;stroke-miterlimit:4;stroke-dasharray:none;stroke-opacity:1"
       d="m 233.9433,426.08371 280.84088,0 0,61.85222 -280.84088,0 z"
       id="rect4234"
       inkscape:connector-curvature="0" />
  </g>
</svg>
